<?xml version="1.0" encoding="UTF-8" standalone="no"?>
<svg xmlns="http://www.w3.org/2000/svg" version="1.1" width="500" height="500">
	<g>
		<path d="m 233.72993,14.801025 30.97001,0 0,28.342438 c 43.74979,3.151313 73.84925,20.828602 90.29846,53.031922 7.70085,14.345095 11.5514,30.970295 11.55166,49.875645 l 0,0.51269 -41.48025,0 c -0.3527,-26.94825 -10.49978,-46.3719 -30.44129,-58.271026 -7.00701,-3.84488 -14.70812,-6.4671 -23.10333,-7.866669 l -6.82525,-0.528717 0,130.721282 c 35.00194,10.85225 57.57653,19.07673 67.72384,24.67346 l 1.05744,0.52872 c 29.39427,16.80162 44.26776,43.5739 44.62051,80.31693 l 0,0.52871 c -2.7e-4,36.40144 -11.89906,65.2779 -35.69641,86.62949 l -12.6091,9.45282 c -17.14346,10.14709 -38.8422,16.27272 -65.09628,18.37692 l 0,54.07333 -30.97001,0 0,-54.07333 c -53.90784,-3.50343 -88.38657,-25.73088 -103.43627,-66.68243 -5.59695,-16.09643 -7.87203,-34.29709 -6.82526,-54.60205 l 41.48025,0 c 2.44593,25.90187 6.12024,43.05579 11.02295,51.46179 l 2.09885,3.66897 c 12.2512,16.80149 30.80434,26.77768 55.65948,29.92859 l 0,-142.80166 c -32.55624,-9.80512 -54.60746,-18.90546 -66.15371,-27.30103 -24.85508,-17.84799 -37.28259,-43.22639 -37.28256,-76.13525 l 0,-0.5127 c -3e-5,-51.098309 24.50251,-84.001566 73.50769,-98.709868 9.10023,-2.798089 19.07642,-4.896933 29.92858,-6.296539 z m 0,191.619875 0,-125.994875 C 200.12694,84.97653 180.3508,100.54963 174.40147,127.14539 l -1.57013,15.74935 c -6e-5,31.49897 20.29945,52.67433 60.89859,63.52616 z m 30.97001,50.40436 0,138.07525 c 21.35144,-2.45664 37.45326,-8.93475 48.30551,-19.43435 14.69704,-13.99226 22.04567,-31.31707 22.0459,-51.97449 l 0,-0.52872 c -2.3e-4,-21.34082 -8.22471,-37.26106 -24.67347,-47.76077 -10.15797,-6.30173 -25.38393,-12.42737 -45.67794,-18.37692 z"/>
	</g>
</svg>
